<svg version="1.1" xmlns="http://www.w3.org/2000/svg" xmlns:xlink="http://www.w3.org/1999/xlink" width="123.18354" height="117.49936" viewBox="0,0,123.18354,117.49936"><g transform="translate(-178.40823,-121.25032)"><g data-paper-data="{&quot;isPaintingLayer&quot;:true}" fill-rule="nonzero" stroke="#000000" stroke-width="0.5" stroke-linecap="butt" stroke-linejoin="miter" stroke-miterlimit="10" stroke-dasharray="" stroke-dashoffset="0" style="mix-blend-mode: normal"><path d="M178.65823,238.49968v-116.99936h122.68354v116.99936z" fill="#000000"/><path d="M218.10268,180.11138c0,17.72701 0.35574,33.22737 -2.37708,41.65381c-1.38661,4.27552 -5.19303,6.72988 -6.92168,6.72988c-2.45826,0 -5.78769,0.72879 -7.45039,-7.37709c-1.81086,-8.82816 -1.84836,-27.07594 -1.84836,-41.0066c0,-14.6278 0.15359,-32.0086 2.12528,-40.88063c1.63013,-7.3351 4.8492,-7.50307 7.17348,-7.50307c1.75056,0 5.57607,1.09392 6.97429,5.47029c2.70369,8.46246 2.32446,25.30041 2.32446,42.9134z" fill="#ffffff"/><path d="M288.80834,178.87367c0,5.89783 -2.16732,22.9068 -10.04713,30.30886c-10.44486,9.81159 -30.06659,17.33426 -42.38926,17.79594c-2.8588,0.10711 -4.89919,0.62539 -6.64139,-0.13928c-1.60674,-0.70522 -3.01588,-2.66967 -3.29802,-3.2098c-0.28876,-0.55281 -0.79556,-6.74853 2.33509,-8.76011c7.88542,-5.06672 25.29264,-10.2264 35.5827,-15.88632c8.5066,-4.67895 9.68679,-14.35064 9.68679,-19.37608c0,-6.00281 -4.41895,-16.57762 -14.27395,-21.44297c-8.08216,-3.99011 -21.2637,-8.25689 -27.97371,-12.63382c-4.45526,-2.90616 -4.47416,-6.65254 -3.9909,-7.52978c0.56936,-1.03354 2.00305,-3.47888 3.56001,-4.22684c2.12472,-1.02072 4.47902,-0.17306 5.17952,-0.17306c0.94757,0 23.50366,4.61549 37.37144,15.0171c11.54681,8.66076 14.89881,22.49097 14.89881,30.25616z" fill="#ffffff"/></g></g></svg>