<svg xmlns="http://www.w3.org/2000/svg" xmlns:xlink="http://www.w3.org/1999/xlink" width="290" zoomAndPan="magnify" viewBox="0 0 217.5 30.000001" height="40" preserveAspectRatio="xMidYMid meet" version="1.0"><defs><g/><clipPath id="50cfd436b2"><path d="M 3.265625 0 L 213.75 0 L 213.75 29.03125 L 3.265625 29.03125 Z M 3.265625 0 " clip-rule="nonzero"/></clipPath></defs><g clip-path="url(#50cfd436b2)"><path fill="#ffffff" d="M 3.265625 0 L 214.234375 0 L 214.234375 36.375 L 3.265625 36.375 Z M 3.265625 0 " fill-opacity="1" fill-rule="nonzero"/><path fill="#ffffff" d="M 3.265625 0 L 214.234375 0 L 214.234375 29.097656 L 3.265625 29.097656 Z M 3.265625 0 " fill-opacity="1" fill-rule="nonzero"/><path fill="#1976d2" d="M 3.265625 0 L 214.234375 0 L 214.234375 29.097656 L 3.265625 29.097656 Z M 3.265625 0 " fill-opacity="1" fill-rule="nonzero"/></g><g fill="#ffffff" fill-opacity="1"><g transform="translate(76.328857, 18.91435)"><g><path d="M 1.246094 0 L 2.023438 -2.175781 L 6.050781 -2.175781 L 6.832031 0 L 7.914062 0 L 4.644531 -8.882812 L 3.433594 -8.882812 L 0.164062 0 Z M 4.039062 -7.785156 L 5.691406 -3.132812 L 2.386719 -3.132812 Z M 4.039062 -7.785156 "/></g></g></g><g fill="#ffffff" fill-opacity="1"><g transform="translate(84.406752, 18.91435)"><g><path d="M 3.445312 0.117188 C 4.328125 0.117188 4.898438 -0.164062 5.550781 -1 L 5.550781 0 L 6.542969 0 L 6.542969 -8.882812 L 5.550781 -8.882812 L 5.550781 -5.4375 C 4.886719 -6.296875 4.308594 -6.554688 3.445312 -6.554688 C 1.710938 -6.554688 0.582031 -5.191406 0.582031 -3.210938 C 0.582031 -1.246094 1.710938 0.117188 3.445312 0.117188 Z M 3.539062 -0.757812 C 2.328125 -0.757812 1.570312 -1.816406 1.570312 -3.210938 C 1.570312 -4.621094 2.328125 -5.679688 3.539062 -5.679688 C 4.738281 -5.679688 5.585938 -4.644531 5.585938 -3.210938 C 5.585938 -1.792969 4.738281 -0.757812 3.539062 -0.757812 Z M 3.539062 -0.757812 "/></g></g></g><g fill="#ffffff" fill-opacity="1"><g transform="translate(91.786278, 18.91435)"><g><path d="M 3.445312 0.117188 C 4.328125 0.117188 4.898438 -0.164062 5.550781 -1 L 5.550781 0 L 6.542969 0 L 6.542969 -8.882812 L 5.550781 -8.882812 L 5.550781 -5.4375 C 4.886719 -6.296875 4.308594 -6.554688 3.445312 -6.554688 C 1.710938 -6.554688 0.582031 -5.191406 0.582031 -3.210938 C 0.582031 -1.246094 1.710938 0.117188 3.445312 0.117188 Z M 3.539062 -0.757812 C 2.328125 -0.757812 1.570312 -1.816406 1.570312 -3.210938 C 1.570312 -4.621094 2.328125 -5.679688 3.539062 -5.679688 C 4.738281 -5.679688 5.585938 -4.644531 5.585938 -3.210938 C 5.585938 -1.792969 4.738281 -0.757812 3.539062 -0.757812 Z M 3.539062 -0.757812 "/></g></g></g><g fill="#ffffff" fill-opacity="1"><g transform="translate(99.165804, 18.91435)"><g/></g></g><g fill="#ffffff" fill-opacity="1"><g transform="translate(102.4249, 18.91435)"><g><path d="M 3.769531 0 L 3.769531 -0.871094 L 3.109375 -0.871094 C 2.386719 -0.871094 2.339844 -1.246094 2.339844 -1.816406 L 2.339844 -5.5625 L 3.78125 -5.5625 L 3.78125 -6.4375 L 2.339844 -6.4375 L 2.339844 -8.882812 L 1.351562 -8.882812 L 1.351562 -6.4375 L 0.3125 -6.4375 L 0.3125 -5.5625 L 1.351562 -5.5625 L 1.351562 -1.617188 C 1.351562 -0.324219 1.910156 0 2.875 0 Z M 3.769531 0 "/></g></g></g><g fill="#ffffff" fill-opacity="1"><g transform="translate(106.626807, 18.91435)"><g><path d="M 3.703125 0.117188 C 5.5625 0.117188 6.867188 -1.304688 6.867188 -3.246094 C 6.867188 -5.15625 5.539062 -6.554688 3.703125 -6.554688 C 1.863281 -6.554688 0.558594 -5.15625 0.558594 -3.246094 C 0.558594 -1.28125 1.863281 0.117188 3.703125 0.117188 Z M 3.703125 -0.757812 C 2.480469 -0.757812 1.546875 -1.792969 1.546875 -3.246094 C 1.546875 -4.644531 2.46875 -5.679688 3.703125 -5.679688 C 4.945312 -5.679688 5.867188 -4.621094 5.867188 -3.246094 C 5.867188 -1.816406 4.933594 -0.757812 3.703125 -0.757812 Z M 3.703125 -0.757812 "/></g></g></g><g fill="#ffffff" fill-opacity="1"><g transform="translate(114.064521, 18.91435)"><g/></g></g><g fill="#ffffff" fill-opacity="1"><g transform="translate(117.323617, 18.91435)"><g><path d="M 4.679688 0.117188 C 6.65625 0.117188 7.949219 -0.964844 8.230469 -2.6875 L 7.066406 -2.6875 C 6.84375 -1.464844 5.9375 -0.839844 4.65625 -0.839844 C 2.675781 -0.839844 1.652344 -2.363281 1.652344 -4.445312 C 1.652344 -6.519531 2.675781 -8.042969 4.65625 -8.042969 C 5.9375 -8.042969 6.84375 -7.414062 7.066406 -6.425781 L 8.230469 -6.425781 C 7.960938 -7.9375 6.65625 -8.996094 4.679688 -8.996094 C 1.875 -8.996094 0.582031 -6.855469 0.582031 -4.445312 C 0.582031 -2.035156 1.875 0.117188 4.679688 0.117188 Z M 4.679688 0.117188 "/></g></g></g><g fill="#ffffff" fill-opacity="1"><g transform="translate(126.03005, 18.91435)"><g><path d="M 2.652344 0.117188 C 3.246094 0.117188 3.746094 0.0117188 4.179688 -0.257812 C 4.46875 -0.429688 4.726562 -0.675781 4.957031 -1.011719 L 4.957031 0 L 5.949219 0 L 5.949219 -3.792969 C 5.949219 -4.226562 5.949219 -5.238281 5.273438 -5.890625 C 4.820312 -6.332031 4.132812 -6.554688 3.386719 -6.554688 C 2.152344 -6.554688 1.023438 -5.84375 0.804688 -4.503906 L 1.792969 -4.503906 C 1.945312 -5.226562 2.585938 -5.679688 3.375 -5.679688 C 3.875 -5.679688 4.285156 -5.515625 4.5625 -5.238281 C 4.832031 -4.96875 4.957031 -4.585938 4.957031 -4.085938 L 2.664062 -3.644531 C 2.023438 -3.515625 1.535156 -3.316406 1.1875 -3.039062 C 0.769531 -2.710938 0.558594 -2.257812 0.558594 -1.710938 C 0.558594 -0.582031 1.363281 0.117188 2.652344 0.117188 Z M 2.769531 -0.757812 C 2.023438 -0.757812 1.546875 -1.140625 1.546875 -1.734375 C 1.546875 -2.011719 1.640625 -2.234375 1.816406 -2.410156 C 2.035156 -2.617188 2.386719 -2.769531 2.875 -2.863281 L 4.96875 -3.28125 C 4.96875 -2.210938 4.714844 -1.453125 3.792969 -0.976562 C 3.503906 -0.828125 3.164062 -0.757812 2.769531 -0.757812 Z M 2.769531 -0.757812 "/></g></g></g><g fill="#ffffff" fill-opacity="1"><g transform="translate(132.734472, 18.91435)"><g><path d="M 1.816406 0 L 1.816406 -3.386719 C 1.816406 -4.191406 2.011719 -4.738281 2.386719 -5.097656 C 2.6875 -5.402344 3.109375 -5.5625 3.632812 -5.5625 L 3.96875 -5.5625 L 3.96875 -6.554688 L 3.921875 -6.554688 C 3.050781 -6.554688 2.410156 -6.273438 1.816406 -5.550781 L 1.816406 -6.4375 L 0.828125 -6.4375 L 0.828125 0 Z M 1.816406 0 "/></g></g></g><g fill="#ffffff" fill-opacity="1"><g transform="translate(136.959657, 18.91435)"><g><path d="M 3.769531 0 L 3.769531 -0.871094 L 3.109375 -0.871094 C 2.386719 -0.871094 2.339844 -1.246094 2.339844 -1.816406 L 2.339844 -5.5625 L 3.78125 -5.5625 L 3.78125 -6.4375 L 2.339844 -6.4375 L 2.339844 -8.882812 L 1.351562 -8.882812 L 1.351562 -6.4375 L 0.3125 -6.4375 L 0.3125 -5.5625 L 1.351562 -5.5625 L 1.351562 -1.617188 C 1.351562 -0.324219 1.910156 0 2.875 0 Z M 3.769531 0 "/></g></g></g></svg>